<svg xmlns="http://www.w3.org/2000/svg" viewBox="0 0 1200 900" preserveAspectRatio="xMidYMid slice">
  <defs>
    <radialGradient id="g3" cx="50%" cy="50%" r="65%">
      <stop offset="0%" stop-color="#E8763A"/>
      <stop offset="50%" stop-color="#B14424"/>
      <stop offset="100%" stop-color="#3D1410"/>
    </radialGradient>
    <radialGradient id="copper" cx="50%" cy="50%" r="50%">
      <stop offset="0%" stop-color="#D9A45F"/>
      <stop offset="60%" stop-color="#A06A35"/>
      <stop offset="100%" stop-color="#5C3A1C"/>
    </radialGradient>
  </defs>
  <rect width="1200" height="900" fill="url(#g3)"/>
  <!-- Copper karahi rim -->
  <ellipse cx="600" cy="500" rx="380" ry="340" fill="url(#copper)"/>
  <ellipse cx="600" cy="490" rx="345" ry="305" fill="#C95A2C"/>
  <ellipse cx="600" cy="480" rx="310" ry="270" fill="#B14424"/>
  <!-- Chunks suggesting chicken pieces -->
  <g opacity="0.85">
    <ellipse cx="500" cy="430" rx="50" ry="35" fill="#D9763A" transform="rotate(-15 500 430)"/>
    <ellipse cx="650" cy="410" rx="55" ry="38" fill="#E8843A" transform="rotate(20 650 410)"/>
    <ellipse cx="730" cy="500" rx="50" ry="35" fill="#D9763A" transform="rotate(-25 730 500)"/>
    <ellipse cx="540" cy="540" rx="58" ry="40" fill="#E8843A" transform="rotate(35 540 540)"/>
    <ellipse cx="630" cy="560" rx="48" ry="34" fill="#D9763A" transform="rotate(10 630 560)"/>
  </g>
  <!-- Cilantro garnish -->
  <g fill="#6B7F4F" opacity="0.85">
    <ellipse cx="580" cy="440" rx="3" ry="6" transform="rotate(20 580 440)"/>
    <ellipse cx="620" cy="450" rx="3" ry="6" transform="rotate(-30 620 450)"/>
    <ellipse cx="680" cy="490" rx="3" ry="6" transform="rotate(45 680 490)"/>
    <ellipse cx="560" cy="510" rx="3" ry="6" transform="rotate(-15 560 510)"/>
    <ellipse cx="600" cy="520" rx="3" ry="6" transform="rotate(60 600 520)"/>
  </g>
  <text x="600" y="850" text-anchor="middle" font-family="Georgia, serif" font-style="italic" font-size="22" fill="#FAF6EE" opacity="0.5">replace with your photo</text>
</svg>
