<svg xmlns="http://www.w3.org/2000/svg" viewBox="0 0 1200 900" preserveAspectRatio="xMidYMid slice">
  <defs>
    <radialGradient id="g5" cx="50%" cy="50%" r="70%">
      <stop offset="0%" stop-color="#7A2B2B"/>
      <stop offset="60%" stop-color="#4A1818"/>
      <stop offset="100%" stop-color="#1F0A0A"/>
    </radialGradient>
  </defs>
  <rect width="1200" height="900" fill="url(#g5)"/>
  <!-- Concentric onion rings -->
  <g transform="translate(280 700)">
    <ellipse cx="0" cy="0" rx="160" ry="40" fill="none" stroke="#FAF6EE" stroke-width="3" opacity="0.7"/>
    <ellipse cx="0" cy="0" rx="120" ry="30" fill="none" stroke="#FAF6EE" stroke-width="2" opacity="0.6"/>
    <ellipse cx="0" cy="0" rx="80" ry="20" fill="none" stroke="#FAF6EE" stroke-width="2" opacity="0.5"/>
  </g>
  <g transform="translate(920 700)">
    <ellipse cx="0" cy="0" rx="160" ry="40" fill="none" stroke="#FAF6EE" stroke-width="3" opacity="0.7"/>
    <ellipse cx="0" cy="0" rx="120" ry="30" fill="none" stroke="#FAF6EE" stroke-width="2" opacity="0.6"/>
    <ellipse cx="0" cy="0" rx="80" ry="20" fill="none" stroke="#FAF6EE" stroke-width="2" opacity="0.5"/>
  </g>
  <!-- Tandoori chicken pieces (charred ovals) -->
  <g>
    <ellipse cx="450" cy="420" rx="130" ry="80" fill="#A93420" transform="rotate(-15 450 420)"/>
    <ellipse cx="450" cy="420" rx="120" ry="72" fill="#8C2818" transform="rotate(-15 450 420)"/>
    <!-- Char marks -->
    <ellipse cx="430" cy="400" rx="15" ry="6" fill="#1F0A0A" transform="rotate(-15 430 400)" opacity="0.7"/>
    <ellipse cx="470" cy="440" rx="12" ry="5" fill="#1F0A0A" transform="rotate(-15 470 440)" opacity="0.7"/>
  </g>
  <g>
    <ellipse cx="700" cy="380" rx="130" ry="80" fill="#A93420" transform="rotate(20 700 380)"/>
    <ellipse cx="700" cy="380" rx="120" ry="72" fill="#8C2818" transform="rotate(20 700 380)"/>
    <ellipse cx="690" cy="370" rx="14" ry="6" fill="#1F0A0A" transform="rotate(20 690 370)" opacity="0.7"/>
    <ellipse cx="720" cy="395" rx="12" ry="5" fill="#1F0A0A" transform="rotate(20 720 395)" opacity="0.7"/>
  </g>
  <g>
    <ellipse cx="900" cy="500" rx="130" ry="80" fill="#A93420" transform="rotate(-25 900 500)"/>
    <ellipse cx="900" cy="500" rx="120" ry="72" fill="#8C2818" transform="rotate(-25 900 500)"/>
    <ellipse cx="880" cy="485" rx="13" ry="6" fill="#1F0A0A" transform="rotate(-25 880 485)" opacity="0.7"/>
  </g>
  <!-- Lemon wedges -->
  <g transform="translate(600 220)">
    <path d="M -50 0 A 50 50 0 0 1 50 0 L 0 0 Z" fill="#E8B547" stroke="#A88842" stroke-width="2"/>
    <line x1="0" y1="0" x2="-30" y2="-30" stroke="#FAF6EE" stroke-width="1.5" opacity="0.7"/>
    <line x1="0" y1="0" x2="30" y2="-30" stroke="#FAF6EE" stroke-width="1.5" opacity="0.7"/>
    <line x1="0" y1="0" x2="0" y2="-42" stroke="#FAF6EE" stroke-width="1.5" opacity="0.7"/>
  </g>
  <text x="600" y="855" text-anchor="middle" font-family="Georgia, serif" font-style="italic" font-size="22" fill="#FAF6EE" opacity="0.5">replace with your photo</text>
</svg>
